<svg width="1820" height="309" viewBox="0 0 1820 309" fill="none" xmlns="http://www.w3.org/2000/svg">
<path d="M0.439941 303V6.20002H98.808C119.301 6.20002 138.452 10.0867 156.26 17.86C174.209 25.492 189.968 36.1627 203.536 49.872C217.245 63.44 227.916 79.1987 235.548 97.148C243.321 114.956 247.208 134.107 247.208 154.6C247.208 175.093 243.321 194.315 235.548 212.264C227.916 230.072 217.245 245.831 203.536 259.54C189.968 273.108 174.209 283.779 156.26 291.552C138.452 299.184 119.301 303 98.808 303H0.439941ZM58.9519 244.488H98.808C110.963 244.488 122.411 242.156 133.152 237.492C144.035 232.828 153.645 226.397 161.984 218.2C170.323 210.003 176.824 200.463 181.488 189.58C186.293 178.697 188.696 167.037 188.696 154.6C188.696 142.163 186.293 130.573 181.488 119.832C176.824 108.949 170.323 99.4094 161.984 91.212C153.787 82.8734 144.247 76.372 133.364 71.708C122.623 67.044 111.104 64.712 98.808 64.712H58.9519V244.488Z" fill="#FCFCFC"/>
<path d="M259.146 303V6.20002H446.978V64.712H317.658V114.744H418.57V173.256H317.658V244.488H446.978V303H259.146Z" fill="#FCFCFC"/>
<path d="M580.214 308.512C563.536 308.512 547.566 305.897 532.302 300.668C517.179 295.439 503.894 287.877 492.446 277.984C481.139 268.091 473.012 256.36 468.066 242.792L522.974 222.44C524.67 227.245 528.203 231.768 533.574 236.008C538.944 240.107 545.658 243.499 553.714 246.184C561.77 248.728 570.603 250 580.214 250C589.4 250 598.022 248.657 606.078 245.972C614.275 243.145 620.847 239.259 625.794 234.312C630.882 229.365 633.426 223.571 633.426 216.928C633.426 210.285 630.811 204.773 625.582 200.392C620.352 196.011 613.639 192.548 605.442 190.004C597.244 187.319 588.835 185.269 580.214 183.856C558.872 180.747 539.722 175.729 522.762 168.804C505.943 161.737 492.658 152.056 482.906 139.76C473.154 127.323 468.278 111.564 468.278 92.484C468.278 74.1107 473.436 58.0694 483.754 44.36C494.212 30.6507 507.922 19.98 524.882 12.348C541.983 4.71603 560.427 0.900024 580.214 0.900024C596.608 0.900024 612.438 3.5147 627.702 8.74404C642.966 13.9734 656.251 21.5347 667.558 31.428C679.006 41.3214 687.203 53.1934 692.15 67.044L637.242 86.972C635.546 82.1667 632.012 77.7147 626.642 73.616C621.271 69.5174 614.558 66.196 606.502 63.652C598.446 61.108 589.683 59.836 580.214 59.836C571.168 59.6947 562.547 61.0374 554.35 63.864C546.294 66.6907 539.651 70.5774 534.422 75.524C529.334 80.4707 526.79 86.124 526.79 92.484C526.79 100.823 529.192 107.112 533.998 111.352C538.944 115.592 545.446 118.631 553.502 120.468C561.558 122.305 570.462 123.931 580.214 125.344C600.283 128.312 618.798 133.612 635.758 141.244C652.718 148.735 666.286 158.769 676.462 171.348C686.779 183.785 691.938 198.979 691.938 216.928C691.938 235.301 686.779 251.343 676.462 265.052C666.144 278.761 652.506 289.432 635.546 297.064C618.586 304.696 600.142 308.512 580.214 308.512Z" fill="#FCFCFC"/>
<path d="M724.536 303V6.20002H783.048V303H724.536Z" fill="#FCFCFC"/>
<path d="M956.5 308.512C935.866 308.512 916.644 304.484 898.836 296.428C881.17 288.372 865.694 277.277 852.408 263.144C839.264 248.869 829.018 232.404 821.668 213.748C814.319 195.092 810.644 175.235 810.644 154.176C810.644 131.563 814.672 110.928 822.728 92.272C830.784 73.616 841.738 57.504 855.588 43.936C869.439 30.2267 885.127 19.6974 902.652 12.348C920.319 4.85737 938.692 1.11203 957.772 1.11203C978.69 1.11203 999.183 5.98804 1019.25 15.74C1039.32 25.492 1057.27 40.968 1073.1 62.168L1020.95 90.152C1011.9 79.6934 1001.8 71.92 990.632 66.832C979.608 61.744 968.372 59.2 956.924 59.2C945.476 59.2 934.452 61.532 923.852 66.196C913.394 70.86 904.066 77.5027 895.868 86.124C887.671 94.7454 881.17 104.921 876.364 116.652C871.559 128.383 869.156 141.315 869.156 155.448C869.156 168.592 871.418 180.888 875.94 192.336C880.604 203.784 886.964 213.819 895.02 222.44C903.076 231.061 912.404 237.845 923.004 242.792C933.746 247.597 945.194 250 957.348 250C964.839 250 972.188 248.94 979.396 246.82C986.746 244.559 993.742 241.308 1000.38 237.068C1007.03 232.828 1013.1 227.528 1018.62 221.168C1024.27 214.808 1029.22 207.459 1033.46 199.12H987.452V148.24H1102.36C1103.2 170.147 1100.02 190.781 1092.82 210.144C1085.61 229.507 1075.29 246.608 1061.86 261.448C1048.44 276.147 1032.75 287.665 1014.8 296.004C996.851 304.343 977.418 308.512 956.5 308.512Z" fill="#FCFCFC"/>
<path d="M1118.82 303V6.20002H1182L1297.75 197.212V6.20002H1356.26V303H1293.09L1177.33 111.988V303H1118.82Z" fill="#FCFCFC"/>
<path d="M1385.81 303V6.20002H1573.64V64.712H1444.32V114.744H1545.23V173.256H1444.32V244.488H1573.64V303H1385.81Z" fill="#FCFCFC"/>
<path d="M1599.38 303V6.20002H1717.26C1733.37 6.20002 1747.92 10.2987 1760.93 18.496C1774.07 26.552 1784.46 37.4347 1792.09 51.144C1799.87 64.712 1803.75 79.764 1803.75 96.3C1803.75 109.303 1801.49 121.387 1796.97 132.552C1792.44 143.576 1786.09 153.257 1777.89 161.596C1769.69 169.935 1760.15 176.436 1749.27 181.1L1819.86 303H1752.45L1684.82 186.4H1657.9V303H1599.38ZM1657.9 127.888H1710.26C1716.62 127.888 1722.41 126.333 1727.64 123.224C1733.01 119.973 1737.25 115.663 1740.36 110.292C1743.61 104.78 1745.24 98.7027 1745.24 92.06C1745.24 85.5587 1743.61 79.6227 1740.36 74.252C1737.25 68.74 1733.01 64.3587 1727.64 61.108C1722.41 57.8574 1716.62 56.232 1710.26 56.232H1657.9V127.888Z" fill="#FCFCFC"/>
</svg>
