<svg width="132" height="25" viewBox="0 0 132 25" fill="none" xmlns="http://www.w3.org/2000/svg">
<path d="M0 23.7978V0.42496H5.15829C6.32489 0.42496 7.26078 0.664 7.96597 1.14208C8.67115 1.61131 9.18045 2.29301 9.49387 3.1872C9.81599 4.08139 9.97705 5.1615 9.97705 6.42752L9.99011 16.9718C9.99011 18.5035 9.82469 19.7784 9.49387 20.7965C9.17175 21.8058 8.64939 22.5583 7.92679 23.0541C7.20419 23.5499 6.24218 23.7978 5.04076 23.7978H0ZM3.4998 21.0355H4.64899C5.05817 21.0355 5.3977 20.9514 5.66759 20.7832C5.94618 20.615 6.15077 20.3184 6.28136 19.8935C6.42066 19.4596 6.4903 18.8488 6.4903 18.0608L6.47725 6.52048C6.47725 5.32528 6.3336 4.46651 6.0463 3.94416C5.759 3.42182 5.25406 3.16064 4.53146 3.16064H3.4998V21.0355Z" fill="white"/>
<path d="M12.0936 23.7978V0.42496H19.7984V3.49264H15.5934V10.292H19.5895V13.2933H15.5934V20.7301H19.9551V23.7978H12.0936Z" fill="white"/>
<path d="M23.8086 23.7978L20.2435 0.42496H23.5735L25.0753 10.9826L26.0025 18.4194H26.0939L26.8905 10.9826L28.1442 0.42496H31.4089L28.1311 23.7978H23.8086Z" fill="white"/>
<path d="M32.5461 23.7978V0.42496H37.7044C38.871 0.42496 39.8069 0.664 40.512 1.14208C41.2172 1.61131 41.7265 2.29301 42.0399 3.1872C42.3621 4.08139 42.5231 5.1615 42.5231 6.42752L42.5362 16.9718C42.5362 18.5035 42.3708 19.7784 42.0399 20.7965C41.7178 21.8058 41.1955 22.5583 40.4729 23.0541C39.7503 23.5499 38.7883 23.7978 37.5868 23.7978H32.5461ZM36.0459 21.0355H37.1951C37.6042 21.0355 37.9438 20.9514 38.2137 20.7832C38.4923 20.615 38.6968 20.3184 38.8274 19.8935C38.9667 19.4596 39.0364 18.8488 39.0364 18.0608L39.0233 6.52048C39.0233 5.32528 38.8797 4.46651 38.5924 3.94416C38.3051 3.42182 37.8001 3.16064 37.0775 3.16064H36.0459V21.0355Z" fill="white"/>
<path d="M49.5499 24.0634C48.3572 24.0634 47.3865 23.8376 46.6377 23.3861C45.889 22.9257 45.3405 22.2352 44.9923 21.3144C44.6441 20.3848 44.4699 19.2117 44.4699 17.7952V0.42496H47.9697V17.7288C47.9697 18.384 47.9959 18.9594 48.0481 19.4552C48.109 19.951 48.2483 20.3361 48.466 20.6106C48.6836 20.885 49.0406 21.0223 49.5368 21.0223C50.0331 21.0223 50.39 20.8895 50.6077 20.6239C50.834 20.3494 50.9733 19.9643 51.0255 19.4685C51.0778 18.9727 51.1039 18.3928 51.1039 17.7288V0.42496H54.6037V17.7952C54.6037 19.2117 54.4296 20.3848 54.0813 21.3144C53.7418 22.2352 53.1977 22.9257 52.449 23.3861C51.709 23.8376 50.7426 24.0634 49.5499 24.0634Z" fill="white"/>
<path d="M58.0131 23.7978V3.50592H55.323V0.42496H64.0856V3.50592H61.4999V23.7978H58.0131Z" fill="white"/>
<path d="M67.924 23.814V0.307191H71.504C72.7634 0.307191 73.7145 0.583217 74.3574 1.13527C75.0003 1.67842 75.4362 2.45307 75.6652 3.45923C75.8942 4.4654 76.0087 5.64964 76.0087 7.01196V17.0825C76.0087 18.7119 75.859 20.0208 75.5595 21.0092C75.2689 21.9886 74.7889 22.701 74.1196 23.1462C73.4503 23.5914 72.552 23.814 71.4247 23.814H67.924ZM69.8791 22.1044H71.504C72.0764 22.1044 72.5476 21.9708 72.9175 21.7037C73.2962 21.4366 73.578 20.929 73.7629 20.1811C73.9479 19.4242 74.0404 18.3246 74.0404 16.8821V6.79826C74.0404 5.06197 73.8422 3.8243 73.4459 3.08526C73.0496 2.33732 72.4419 1.96335 71.6229 1.96335H69.8791V22.1044Z" fill="white"/>
<path d="M78.916 23.814V0.307191H85.0587V1.8565H80.8843V11.0455H84.8078V12.6616H80.8843V22.2379H85.0191V23.814H78.916Z" fill="white"/>
<path d="M90.5288 24.0811C89.6041 24.0811 88.8688 23.8941 88.3227 23.5201C87.7855 23.1372 87.3848 22.6164 87.1206 21.9575C86.8564 21.2897 86.6847 20.5195 86.6054 19.6469C86.5261 18.7653 86.4865 17.826 86.4865 16.8287V14.3979H88.4152V16.7886C88.4152 18.801 88.5561 20.2479 88.8379 21.1294C89.1286 22.0109 89.7318 22.4516 90.6477 22.4516C91.2906 22.4516 91.7486 22.2914 92.0216 21.9708C92.3034 21.6503 92.4796 21.1472 92.55 20.4616C92.6205 19.776 92.6557 18.8811 92.6557 17.777C92.6557 16.566 92.506 15.591 92.2065 14.852C91.9159 14.1041 91.3919 13.3784 90.6345 12.675L89.2607 11.3928C88.8379 11.001 88.3976 10.5469 87.9396 10.0304C87.4817 9.51401 87.0942 8.91298 86.7771 8.22737C86.4601 7.53285 86.3016 6.73594 86.3016 5.83662C86.3016 4.70581 86.3984 3.7041 86.5922 2.8315C86.7947 1.94999 87.1867 1.25993 87.7679 0.761299C88.358 0.253766 89.2386 0 90.41 0C91.3611 0 92.1009 0.186986 92.6293 0.560957C93.1577 0.926024 93.5364 1.43801 93.7654 2.09691C94.0031 2.75581 94.1485 3.52156 94.2013 4.39416C94.2541 5.26676 94.2806 6.2106 94.2806 7.22566V8.54792H92.5236V7.07874C92.5236 5.63628 92.4575 4.52772 92.3254 3.75307C92.2021 2.96951 91.9908 2.42636 91.6913 2.12362C91.3919 1.82088 90.9736 1.66951 90.4364 1.66951C89.9256 1.66951 89.5073 1.77191 89.1814 1.97671C88.8644 2.1815 88.631 2.55992 88.4813 3.11198C88.3404 3.65512 88.2699 4.45204 88.2699 5.50272C88.2699 6.25066 88.3536 6.85614 88.5209 7.31915C88.6882 7.77326 88.9436 8.1873 89.2871 8.56127C89.6305 8.93524 90.0577 9.38045 90.5685 9.89688L91.8499 11.1791C92.7306 12.0517 93.4175 13.0178 93.9107 14.0773C94.4127 15.1369 94.6637 16.4414 94.6637 17.9907C94.6637 19.1838 94.5624 20.239 94.3598 21.1561C94.1572 22.0732 93.7609 22.79 93.1709 23.3064C92.5808 23.8229 91.7002 24.0811 90.5288 24.0811Z" fill="white"/>
<path d="M96.7255 23.814V0.307191H98.6938V23.814H96.7255Z" fill="white"/>
<path d="M105.379 24.0811C104.085 24.0811 103.138 23.5112 102.539 22.3715C101.94 21.2229 101.641 19.3352 101.641 16.7085V7.18559C101.641 6.17943 101.689 5.2445 101.786 4.38081C101.883 3.50821 102.072 2.74691 102.354 2.09691C102.645 1.43801 103.067 0.926024 103.622 0.560957C104.186 0.186986 104.935 0 105.868 0C106.784 0 107.502 0.182534 108.021 0.547601C108.541 0.912668 108.924 1.42465 109.171 2.08355C109.417 2.73355 109.571 3.4904 109.633 4.35409C109.703 5.21779 109.739 6.15272 109.739 7.15888V9.12223H107.731V5.48937C107.731 4.26951 107.612 3.33013 107.374 2.67122C107.136 2.00342 106.612 1.66951 105.802 1.66951C104.974 1.66951 104.402 2.0702 104.085 2.87157C103.768 3.66403 103.609 5.0308 103.609 6.97189V16.5616C103.609 18.6808 103.741 20.1945 104.005 21.1027C104.27 22.002 104.842 22.4516 105.723 22.4516C106.559 22.4516 107.11 22.002 107.374 21.1027C107.647 20.1945 107.784 18.6897 107.784 16.5883V13.6232H105.789V11.927H109.739V23.814H108.444L108.233 22.4516C107.924 22.977 107.55 23.3821 107.11 23.667C106.678 23.9431 106.101 24.0811 105.379 24.0811Z" fill="white"/>
<path d="M112.712 23.814V0.307191H114.086L119.793 18.4849L119.595 10.3911V0.307191H121.312V23.814H119.779L114.429 6.10375L114.561 12.4613V23.814H112.712Z" fill="white"/>
<path d="M127.865 24.0811C126.94 24.0811 126.205 23.8941 125.659 23.5201C125.122 23.1372 124.721 22.6164 124.457 21.9575C124.193 21.2897 124.021 20.5195 123.942 19.6469C123.862 18.7653 123.823 17.826 123.823 16.8287V14.3979H125.752V16.7886C125.752 18.801 125.892 20.2479 126.174 21.1294C126.465 22.0109 127.068 22.4516 127.984 22.4516C128.627 22.4516 129.085 22.2914 129.358 21.9708C129.64 21.6503 129.816 21.1472 129.886 20.4616C129.957 19.776 129.992 18.8811 129.992 17.777C129.992 16.566 129.842 15.591 129.543 14.852C129.252 14.1041 128.728 13.3784 127.971 12.675L126.597 11.3928C126.174 11.001 125.734 10.5469 125.276 10.0304C124.818 9.51401 124.431 8.91298 124.113 8.22737C123.796 7.53285 123.638 6.73594 123.638 5.83662C123.638 4.70581 123.735 3.7041 123.929 2.8315C124.131 1.94999 124.523 1.25993 125.104 0.761299C125.694 0.253766 126.575 0 127.746 0C128.697 0 129.437 0.186986 129.966 0.560957C130.494 0.926024 130.873 1.43801 131.102 2.09691C131.339 2.75581 131.485 3.52156 131.538 4.39416C131.59 5.26676 131.617 6.2106 131.617 7.22566V8.54792H129.86V7.07874C129.86 5.63628 129.794 4.52772 129.662 3.75307C129.538 2.96951 129.327 2.42636 129.028 2.12362C128.728 1.82088 128.31 1.66951 127.773 1.66951C127.262 1.66951 126.844 1.77191 126.518 1.97671C126.201 2.1815 125.967 2.55992 125.818 3.11198C125.677 3.65512 125.606 4.45204 125.606 5.50272C125.606 6.25066 125.69 6.85614 125.857 7.31915C126.025 7.77326 126.28 8.1873 126.623 8.56127C126.967 8.93524 127.394 9.38045 127.905 9.89688L129.186 11.1791C130.067 12.0517 130.754 13.0178 131.247 14.0773C131.749 15.1369 132 16.4414 132 17.9907C132 19.1838 131.899 20.239 131.696 21.1561C131.494 22.0732 131.097 22.79 130.507 23.3064C129.917 23.8229 129.036 24.0811 127.865 24.0811Z" fill="white"/>
</svg>
